<?xml version="1.0" encoding="utf-8"?><!-- Uploaded to: SVG Repo, www.svgrepo.com, Generator: SVG Repo Mixer Tools -->
<svg width="800px" height="800px" viewBox="0 0 64 64" xmlns="http://www.w3.org/2000/svg" xmlns:xlink="http://www.w3.org/1999/xlink" aria-hidden="true" role="img" class="iconify iconify--emojione" preserveAspectRatio="xMidYMid meet"><path d="M32 2v30H2c0 16.6 13.4 30 30 30s30-13.4 30-30S48.6 2 32 2z" fill="#ed4c5c"></path><path d="M32 2C15.4 2 2 15.4 2 32h30V2z" fill="#2a5f9e"></path><path d="M24 20.3l5-1.3l-5-1.3l3.7-3.7l-5 1.3l1.3-5l-3.7 3.7L19 9l-1.3 5l-3.7-3.7l1.3 5l-5-1.3l3.7 3.7L9 19l5 1.3l-3.7 3.7l5-1.3l-1.3 5l3.7-3.7l1.3 5l1.3-5l3.7 3.7l-1.3-5l5 1.3l-3.7-3.7" fill="#ffffff"></path><circle cx="19" cy="19" r="5.7" fill="#428bc1"></circle><circle cx="19" cy="19" r="5" fill="#ffffff"></circle></svg>