<?xml version="1.0" encoding="utf-8"?><!-- Uploaded to: SVG Repo, www.svgrepo.com, Generator: SVG Repo Mixer Tools -->
<svg width="800px" height="800px" viewBox="0 0 128 128" xmlns="http://www.w3.org/2000/svg" xmlns:xlink="http://www.w3.org/1999/xlink" aria-hidden="true" role="img" class="iconify iconify--noto" preserveAspectRatio="xMidYMid meet"><radialGradient id="IconifyId17ecdb2904d178eab8947" cx="43.972" cy="29.066" r="90.951" gradientTransform="matrix(.6257 .78 -.5815 .4665 33.359 -18.792)" gradientUnits="userSpaceOnUse"><stop offset=".506" stop-color="#17a1f3"></stop><stop offset=".767" stop-color="#1b7ffa"></stop><stop offset=".962" stop-color="#1366f0"></stop><stop offset="1" stop-color="#1160ee"></stop></radialGradient><path d="M3.14 64.68c.68 24.4 16.99 59.55 61.45 59.1c43.32-.44 60.76-36.3 59.4-62.06c-1.37-25.76-21.66-57.46-61.79-57.23c-40.14.22-59.8 33.96-59.06 60.19z" fill="url(#IconifyId17ecdb2904d178eab8947)"></path><path d="M47.21 22.14c.28.38 1.55-.08 2.15-.05c.6.03 1.25.27 1.33.82c.08.54-.52.63-.87 1.33c-.18.36-1.39 2.79-.73 3.07c.87.38 1.3-.49 1.49-.9c.19-.41.65-1.28.65-1.28s.52-1.14 1.2-1.06c1.22.14.73 1.88.73 1.88s-.27 1.3.38 1.6c.65.3 1.28.08 1.63-.05c.35-.14.95 0 1.66-.3s1.01-.57 1.49-.76c.49-.19.92-.08.98-.52c.05-.43-.38-.87-1.11-.92s-1.63.79-1.93 1.06c-.3.27-1.28.46-1.39-.24s.52-.76.98-1.03c.46-.27.76-.65.76-.65s-.84-1.09-1.09-1.17c-.24-.08-1.22.22-2.2-.46c-.91-.63-1.28-1.49-1.52-1.71s-1.33-.57-2.39-.35s-2.64 1.09-2.2 1.69z" fill="#4b9eec"></path><path d="M5.54 46.98C11.5 26.73 28.47 7.24 56.48 4.75l.14 1.34s2.57.69 3.82.76c1.25.07 2.57.14 2.98 0c.42-.14 2.22-2.31 2.22-2.31c7.18.3 13.68 1.64 19.52 3.79c0 0 .22 2.38-.11 2.87s-.27 2.46-.11 3.23s.77 3.45.55 5.09c-.22 1.64.11 4.05-1.04 3.83c-1.15-.22-2.19-4.38-2.96-5.2c-.77-.82.33-2.85-.22-4.05c-.55-1.2-.88-1.75-2.13-1.26s-1.59 2.96-2.85 3.45c-1.26.49-2.41-.6-3.12-.6s-3.5 1.26-4.05 2.9c-.55 1.64-.33 2.9 1.15 3.07c1.48.16 1.31-.66 2.13-.44c.82.22 1.04 2.24 1.37 2.96c.33.71.93 1.48.99 2.9c.05 1.42-.6 3.78-1.31 4.6c-.71.82-1.09 3.01-2.13 3.61c-1.04.6-2.35.27-3.28.6c-.93.33-.6 1.64-1.48 2.35c-.88.71-1.75.99-1.75.99s2.08 2.13 2.03 3.67c-.05 1.53.05 2.52-1.81 3.34c-1.86.82-1.53-.27-1.48-1.75c.05-1.48-.05-2.24-.05-2.24s-1.26-.38-1.53-.66c-.27-.27-.38-.66-.38-.66s-1.64-.33-1.97-.38c-.33-.05-.88.16-1.15-.38c-.27-.55.49-1.42.11-1.64c-.38-.22-2.57 1.31-3.01 2.03c-.44.71.38 1.37.71 1.75c.33.38 1.37 0 1.42.49c.05.49-.22 1.53-.55 1.86s-.82.88-.77 1.26c.05.38 1.92 1.81 2.13 2.3s1.09.38 1.15 1.81c.05 1.42-.38 2.41-.99 3.12c-.6.71-1.26 1.42-1.42 1.53s-1.26 1.97-2.08 2.63s-2.63 2.13-4 2.57s-3.74.19-4.88.98s-.97 2.15-1.76 2.8c-.79.65-1.26.86-1.8.18s-.36-1.44-.04-1.72c.32-.29.93-.61.29-1.04c-.65-.43-1.15 0-1.83.47c-.68.47-1.69 1.01-1.33 2.08c.36 1.08 1.97 2.37 2.51 3.16c.54.79.86 1.44.83 2.23c-.04.79.18.97-.57 1.58c-.75.61-.86.43-2.12 1.11c-1.26.68-2.15 1.58-2.84 1.18s-.83-1.08-.83-1.08s-1.83-2.19-2.33-2.59c-.5-.39-1.8-.68-1.94-.36c-.14.32-.11 1.76.04 2.41c.14.65.36 1.69.36 2.05c0 .36 1.15 1.22 1.8 1.58c.65.36 1.22.25 1.62.86c.39.61 1.04 1.9 1.36 2.73c.32.83 1.4 2.12 1.4 2.12s2.37 2.15 2.59 2.69s1.26 1.01 1.01 1.83c-.25.83-.61 1.44-1.62 1.36c-1.01-.07-2.59-1.08-3.09-1.36c-.5-.29-1.72-.79-1.72-.79s-2.91-2.98-3.27-3.41c-.36-.43-2.19-1.8-2.51-2.37c-.32-.57-1.9-1.9-2.15-2.33c-.25-.43.04-1.01.54-.86c.5.14 2.59 1.94 3.05 2.3c.47.36 1.9.86 1.9.86s-1.26-2.05-1.72-2.62c-.47-.57-1.47-1.44-1.72-3.27s-.39-3.48-.5-3.88s-1.01-2.62-1.29-2.98s-1.54.29-2.01-.39c-.47-.68-.18-3.73-.18-3.73s-2.23-4.13-2.73-4.27c-.5-.14-2.15-.36-2.8 0c-.65.36-2.8 2.26-3.12 2.55c-.32.29-2.26 1.94-2.66 2.12c-.39.18-.97.47-.97.47s-.47 2.37-.65 2.62c-.18.25-.32 2.08-.57 2.73c-.25.65-.61 1.83-1.44 1.8c-.83-.04-.75-.61-1.01-2.33c-.25-1.72-1.08-3.99-1.26-5.78c-.18-1.8-.47-6.75-.61-7.04c-.14-.29-1.04.07-1.08-.79c-.04-.86.41-3.9.04-4.74c-.47-1.07-2.02-2.02-2.02-2.02z" fill="#7add8a"></path><radialGradient id="IconifyId17ecdb2904d178eab8948" cx="21.813" cy="33.578" r="43.504" gradientTransform="matrix(.9605 .2782 -.1679 .5797 6.5 8.044)" gradientUnits="userSpaceOnUse"><stop offset="0" stop-color="#e3dda6"></stop><stop offset="1" stop-color="#e3dda6" stop-opacity="0"></stop></radialGradient><path d="M5.54 46.98C11.5 26.73 28.47 7.24 56.48 4.75c0 0 3.67 7.8 4 8.1c1.93 1.75 9.21 4.1 8.66 5.74c-.55 1.64-.33 2.9 1.15 3.07c1.48.16 1.31-.66 2.13-.44c.82.22 1.04 2.24 1.37 2.96c.33.71.93 1.48.99 2.9c.05 1.42-.6 3.78-1.31 4.6c-.71.82-1.09 3.01-2.13 3.61c-1.04.6-2.35.27-3.28.6c-.93.33-.6 1.64-1.48 2.35c-.88.71-1.75.99-1.75.99s2.08 2.13 2.03 3.67c-.05 1.53.05 2.52-1.81 3.34c-1.86.82-1.53-.27-1.48-1.75c.05-1.48-.05-2.24-.05-2.24s-1.26-.38-1.53-.66c-.27-.27-.38-.66-.38-.66s-1.64-.33-1.97-.38c-.33-.05-.88.16-1.15-.38c-.27-.55.49-1.42.11-1.64c-.38-.22-2.57 1.31-3.01 2.03c-.44.71.38 1.37.71 1.75c.33.38 1.37 0 1.42.49c.05.49-.22 1.53-.55 1.86s-.82.88-.77 1.26c.05.38 1.92 1.81 2.13 2.3s1.09.38 1.15 1.81c.05 1.42-.38 2.41-.99 3.12c-.6.71-1.26 1.42-1.42 1.53s-1.26 1.97-2.08 2.63s-2.63 2.13-4 2.57s-3.74.19-4.88.98s-.97 2.15-1.76 2.8c-.79.65-1.26.86-1.8.18s-.36-1.44-.04-1.72c.32-.29.93-.61.29-1.04c-.65-.43-1.15 0-1.83.47c-.68.47-1.69 1.01-1.33 2.08c.36 1.08 1.97 2.37 2.51 3.16c.54.79.86 1.44.83 2.23c-.04.79.18.97-.57 1.58c-.75.61-.86.43-2.12 1.11c-1.26.68-2.15 1.58-2.84 1.18s-.83-1.08-.83-1.08s-1.83-2.19-2.33-2.59c-.5-.39-1.8-.68-1.94-.36c-.14.32-.11 1.76.04 2.41c.14.65.36 1.69.36 2.05c0 .36 1.15 1.22 1.8 1.58c.65.36 1.22.25 1.62.86c.39.61 1.04 1.9 1.36 2.73c.32.83 1.4 2.12 1.4 2.12s2.37 2.15 2.59 2.69s1.26 1.01 1.01 1.83c-.25.83-.61 1.44-1.62 1.36c-1.01-.07-2.59-1.08-3.09-1.36c-.5-.29-1.72-.79-1.72-.79s-2.91-2.98-3.27-3.41c-.36-.43-2.19-1.8-2.51-2.37c-.32-.57-1.9-1.9-2.15-2.33c-.25-.43.04-1.01.54-.86c.5.14 2.59 1.94 3.05 2.3c.47.36 1.9.86 1.9.86s-1.26-2.05-1.72-2.62c-.47-.57-1.47-1.44-1.72-3.27s-.39-3.48-.5-3.88s-1.01-2.62-1.29-2.98s-1.54.29-2.01-.39c-.47-.68-.18-3.73-.18-3.73s-2.23-4.13-2.73-4.27c-.5-.14-2.15-.36-2.8 0c-.65.36-2.8 2.26-3.12 2.55c-.32.29-2.26 1.94-2.66 2.12c-.39.18-.97.47-.97.47s-.47 2.37-.65 2.62c-.18.25-.32 2.08-.57 2.73c-.25.65-.61 1.83-1.44 1.8c-.83-.04-.75-.61-1.01-2.33c-.25-1.72-1.08-3.99-1.26-5.78c-.18-1.8-.47-6.75-.61-7.04c-.14-.29-1.04.07-1.08-.79c-.04-.86.41-3.9.04-4.74c-.49-1.07-2.04-2.02-2.04-2.02z" fill="url(#IconifyId17ecdb2904d178eab8948)"></path><path d="M50.05 20c-.64-.12-1.12 1.2-2.14 1.92c-1.03.72-2.1.8-2.14 1.29c-.04.49.98 2.19 1.87 2.23s2.22-.73 2.9-1.47c.94-1.02 1.16-3.65-.49-3.97z" fill="#159ff7"></path><path d="M75.03 21.99c-.25.09-.53.61-.55.98c-.02.69 1.26 2.55 1.31 2.97s.23 2.21.29 2.88c.07.81.14 1.49.5 1.55c.59.1 1.36-1.05 1.52-1.62c.17-.57.52-2.74.36-3.19c-.17-.45-.36-1.13-.98-1.81c-.74-.8-1.92-1.95-2.45-1.76z" fill="#7add8a"></path><path d="M77.13 31.51c-.54.14-.59.95-.74 2.43c-.14 1.47.02 3.83.02 4.52c0 .69-.07 1.17-.07 1.17s-.57 1.64-.62 1.88c-.05.24-1.33 1.38-1.74 1.78c-.4.4-1.52 1.33-1.52 1.33s-1.47-.24-2.12-.05c-2.43.71-2.55 1.93-2.55 1.93s-.69.54-.78 1.12c-.17 1 .83 1.83 1.78 1.71c.98-.12 2.21-.93 2.93-1.07c.71-.14 1.93-.5 2.9-1.47s2.12-2.59 2.43-2.81s1.19-.48 1.31-2.12c.12-1.64.55-5.38.48-5.61c-.07-.24 1.5-1 1.55-1.38s.36-1.5 0-1.57c-.36-.07-1.41-.24-1.81-.45c-.88-.48-.88-1.48-1.45-1.34z" fill="#7add8a"></path><path d="M55.22 62.15c-.24.04-.21 1.64-.19 2.5c0 .18-.43.71.12 2.09c.43 1.08 1.28 1.74 1.28 1.74s-.31 3.21.52 4.26c.25.32 1.5 0 1.88.33c.38.33.79.73 1.28.9c.48.17 1.93.19 2.14-.19c.21-.38-.45-1.4-.48-1.62c-.02-.21.48-.74.31-1.31c-.17-.57-2.85-4.09-3.33-4.23c-.48-.14-.76.19-1.28-.4c-.36-.4-.67-1.09-.62-2.14c.06-1.05-.42-2.15-1.63-1.93z" fill="#7add8a"></path><path d="M50.89 69.07c-.51.52-1.12 2.83-1.26 3.14c-.14.31-1.64 1.76-2.24 2.16c-.56.38-1.86 1.67-2 2.02c-.14.36-1.33-.05-2 .05c-.57.08-1.62 1-1.78 1.4c-.17.4.17 1.12.57 1.83c.4.71 1.28 1.45 1.57 1.76s1.17 1.01 1.43 1.17c.55.33 1.86-.33 2.81-.07s1.81.73 2.09.59c.83-.4 1.4-2.31 1.93-3.62c.76-1.91.88-2.33.88-2.33s.59-.43.9-1.14c.31-.71.05-1.76.29-3.28s.51-2.09.69-2.9c.17-.74.19-1.33-.21-1.52s-2.53-.43-3.67.74z" fill="#7add8a"></path><path d="M54 82.8c-.12-.19-.64-.9-.48-2.43c.17-1.52.67-2.5.71-2.69c.05-.19 1.88-1.43 2.55-1.43c.67 0 1.14.31 1.21.43c.07.12.29.33.64.26c.36-.07.64-.74.57-.98c-.07-.24.07-.67.38-.69c.31-.02.36.64.33 1.26c-.02.62-.1.81-.62 1.05s-2.07.57-2.47 1.14c-.4.57-.14 1.88-.14 2.09s.93.71 1 1.24c.08.58-.17 1.03-1.95 1.09c-1.27.06-1.73-.34-1.73-.34z" fill="#7add8a"></path><path d="M62.64 77.23s-1.09.4-1.28.55c-.19.14-.15.68.05.88c.29.29 1.5.02 2.12.1c.54.06 1.09.19 1.76.19c.59 0 .88-.93.69-1.19c-.19-.26-1.21-2.16-1-2.52c.21-.36.57-.98.55-1.26c-.04-.48-1.28-.4-1.67-.19c-.38.21-.78 1.09-1.07 1.52c-.29.42-.15 1.92-.15 1.92z" fill="#7add8a"></path><path d="M43.92 85.15c-.17.08-.81 1.21-.48 1.67c.33.45.69.4 3.71.45s3.79-.08 3.97-.17c.24-.12 2.43-.19 3.38-.81c.95-.62 2.26-.88 2.66-.9c.4-.02 1.19.02 1.45-.17s1.12-.5.93-1.17c-.19-.67-.69 0-3.26.12c-2.17.1-6.18 1.03-6.78 1.05c-.78.03-5.27-.21-5.58-.07z" fill="#7add8a"></path><path d="M61.93 82.3c-.88.78-1.38 1.24-1 1.71c.28.35 1.19-.29 1.74-.76c.55-.48 1.63-1.1 1.17-1.64c-.44-.5-1.26.1-1.91.69z" fill="#7add8a"></path><path d="M67.47 74.54c-.11.16.05.98.12 1.19s1.05.55 1.62 1.21c.57.67.57 1.36.74 1.47c.17.12 2.71.02 3.24-.07s1.4-.14 2.5-.17c1.09-.02 2.7.06 2.97.12c.4.1.9.36 1.05.78c.09.28.22.8-.02 1.07s-.71.21-.76.69s-.05.9.62.86c.67-.05 2.81.07 3.33.05s1.67.48 2.24.19c.57-.29 2.12-.67 2.14-1.17s-.38-.62-.17-1.12c.25-.59.83-.48 1.45-.17c.62.31 2.35 1.67 2.83 1.71s1.59-.21 1.64-.62c.05-.4-.5-.76-.83-.76c-.33 0-.95-.19-1.14-.33c-.19-.14-1.64-2.02-1.88-2.28s-.12-1.28-.19-1.45c-.07-.17-1.31-.24-1.5-.43c-.19-.19-2.59-2.14-3.47-2.4c-.88-.26-7.61.05-7.95.21c-.33.17-2.19 3.07-2.9 2.97c-.71-.1-.55-2.09-1.45-2.57s-3.97.64-4.23 1.02z" fill="#7add8a"></path><path d="M80.94 114.42c-.27.07-1.29-.22-1.58.11c-.29.32-.54 1.29-.47 1.76s.58 1.4 1.33 1.47c1.05.1 2.59-1.55 2.55-2.3c-.03-.75-.97-1.26-1.83-1.04z" fill="#7add8a"></path><path d="M93.23 113.2c-.54.23-.97-1.47-1.62-1.44c-.47.03-1.89 1.17-3.09 2.01c-1.24.87-1.98 1.11-2.19 2.01c-.06.25.11.97 1.26 1.11c1.15.14 5.32-2.27 6.11-2.8s3.74-2.37 3.85-3.06c.11-.68-.86-2.37-.93-2.84c-.07-.47-.4-1.65-.79-1.62c-.4.04-.7.47-.61 1.44c.04.48-.03 1.16-.05 1.35c-.09.67-.36.78-.62.93c-.33.19-.77.31-.98.96c-.29.83.35 1.66-.34 1.95z" fill="#7add8a"></path><path d="M77.52 87.47c-.05.71.97 1.6 1.37 1.97c.71.66 1.7 1.48 2.69 1.53c.99.05 1.97-.38 2.19-.88c.22-.49 1.48-3.01 1.48-3.67c0-.66.44-2.3.49-2.74c.05-.44.38-.6.93-.6s.71.33 1.04.93s.66 1.64 1.04 2.3c.38.66 1.15 2.03 1.15 2.03s-.16 1.75 0 2.63c.16.88 2.52 3.51 2.52 4.33c0 .82-.22 1.37.16 1.92c.38.55 1.21.88 1.32 1.21c.11.33.44 1.64.27 2.36c-.16.71-.71 2.74-1.97 4c-1.26 1.26-3.18 2.79-3.18 2.79s-2.05 2.81-2.93 3.52c-.88.71-1.57 1.22-2 1.41c-.35.15-1.42 1.15-4.27 1.04c-2.85-.11-3.56-1.21-4.06-1.59c-.49-.38-1.59-.3-1.86-.71c-.44-.66 0-1.1-.11-1.81c-.06-.36-.49-1.26-1.92-1.48s-5.43.27-6.41.55c-.99.27-1.83 1.34-2.74 1.21c-1.15-.16-2.3.44-4.11.33c-1.86-.11-3.12-1.26-2.52-1.75c.27-.22.77-.66.49-1.37c-.27-.71-2.36-4.82-2.96-6.08c-.6-1.26-1.37-2.62-1.32-3.73c.16-3.29 1.59-3.18 1.92-3.34c.33-.16.71.05 1.26-.27c.55-.33 2.74-1.15 3.07-1.64s.38-1.81.77-2.14c.38-.33 3.84-3.34 4.55-3.78s1.37-.27 1.59.16s1.04.88 1.81.71c1.61-.34 1.21-2.25 1.97-2.74c.77-.49 3.4-.99 5.59-.71s3.23.27 3.51 1.42s-.82 2.68-.82 2.68z" fill="#7add8a"></path><radialGradient id="IconifyId17ecdb2904d178eab8949" cx="64.536" cy="88.962" r="19.144" fx="53.958" fy="95.795" gradientTransform="matrix(.068 .9977 -1.4592 .0994 189.96 15.728)" gradientUnits="userSpaceOnUse"><stop offset=".611" stop-color="#e3dda6"></stop><stop offset=".966" stop-color="#e3dda6" stop-opacity=".087"></stop><stop offset="1" stop-color="#e3dda6" stop-opacity="0"></stop></radialGradient><path d="M87.13 105.61s6.88-4.11 7.05-4.83c.16-.71-.16-2.03-.27-2.36c-.11-.33-.93-.66-1.32-1.21c-.38-.55-.16-1.1-.16-1.92c0-.82-2.36-3.45-2.52-4.33c-.16-.88 0-2.63 0-2.63s-.77-1.37-1.15-2.03c-.38-.66-.71-1.7-1.04-2.3s-.49-.93-1.04-.93s-.88.16-.93.6c-.05.44-.49 2.08-.49 2.74c0 .66-1.26 3.18-1.48 3.67c-.22.49-1.21.93-2.19.88c-.99-.05-1.97-.88-2.69-1.53c-.4-.37-1.42-1.26-1.37-1.97c0 0 1.1-1.53.82-2.69s-1.32-1.15-3.51-1.42s-4.82.22-5.59.71c-.77.49-.37 2.4-1.97 2.74c-.77.16-1.59-.27-1.81-.71s-.88-.6-1.59-.16s-4.17 3.45-4.55 3.78c-.38.33-.44 1.64-.77 2.14s-2.52 1.32-3.07 1.64c-.55.33-.93.11-1.26.27c-.33.16-1.75.05-1.92 3.34c-.06 1.11.71 2.47 1.32 3.73c.6 1.26 2.69 5.37 2.96 6.08s-.22 1.15-.49 1.37c-.6.49.66 1.64 2.52 1.75c1.81.11 2.96-.49 4.11-.33c.91.13 1.75-.93 2.74-1.21c.99-.27 4.99-.77 6.41-.55s1.86 1.12 1.92 1.48c.11.71 6.77-1.16 6.77-1.16l6.56-2.65z" fill="url(#IconifyId17ecdb2904d178eab8949)"></path></svg>